<svg width="336" height="838" viewBox="0 0 336 838" fill="none" xmlns="http://www.w3.org/2000/svg">
<path d="M174.496 826.015L186.152 818.795L199.015 823.541L191.795 811.886L196.541 799.022L184.886 806.243L172.022 801.496L179.243 813.152L174.496 826.015Z" fill="white"/>
<path d="M162.496 160.015L174.152 152.795L187.015 157.541L179.795 145.886L184.541 133.023L172.886 140.243L160.022 135.496L167.243 147.152L162.496 160.015Z" fill="white"/>
<path d="M157.285 359.847L170.052 354.85L181.847 361.84L176.85 349.073L183.84 337.278L171.073 342.275L159.278 335.285L164.275 348.052L157.285 359.847Z" fill="white"/>
<path d="M11.2847 783.847L24.0524 778.85L35.8473 785.841L30.8499 773.073L37.8404 761.278L25.0727 766.275L13.2778 759.285L18.2752 772.053L11.2847 783.847Z" fill="white"/>
<path d="M276.285 130.847L289.052 125.85L300.847 132.84L295.85 120.073L302.84 108.278L290.073 113.275L278.278 106.285L283.275 119.052L276.285 130.847Z" fill="white"/>
<path d="M250.129 659.294L255.932 657.023L261.294 660.2L259.022 654.397L262.199 649.036L256.396 651.307L251.035 648.13L253.307 653.933L250.129 659.294Z" fill="white"/>
<path d="M19.1292 558.294L24.9324 556.022L30.2935 559.199L28.0221 553.396L31.1994 548.035L25.3962 550.307L20.0351 547.129L22.3066 552.933L19.1292 558.294Z" fill="#FFAE00"/>
<path d="M290.798 774.783L298.397 770.076L306.783 773.17L302.076 765.572L305.17 757.186L297.571 761.893L289.186 758.799L293.893 766.397L290.798 774.783Z" fill="#FFAE00"/>
<path d="M203.798 448.782L211.397 444.076L219.783 447.17L215.076 439.571L218.17 431.186L210.571 435.893L202.186 432.798L206.893 440.397L203.798 448.782Z" fill="#FFAE00"/>
<path d="M203.798 240.783L211.397 236.076L219.783 239.17L215.076 231.571L218.17 223.186L210.571 227.893L202.186 224.798L206.893 232.397L203.798 240.783Z" fill="#FFAE00"/>
<path d="M81.641 700.04L104.649 685.788L130.04 695.157L115.788 672.149L125.157 646.758L102.149 661.011L76.7578 651.642L91.01 674.649L81.641 700.04Z" fill="#FFAE00"/>
<path d="M272.491 513.728L293.892 506.536L312.728 518.981L305.536 497.581L317.981 478.745L296.581 485.937L277.745 473.491L284.937 494.892L272.491 513.728Z" fill="#FFAE00"/>
<circle cx="26.7695" cy="26.7695" r="26.7695" transform="matrix(1 0 0 -1 273 346.539)" fill="#FFAE00"/>
<circle cx="37.1238" cy="37.1238" r="37.1238" transform="matrix(1 0 0 -1 91 575.248)" fill="white"/>
<circle cx="13.1322" cy="13.1322" r="13.1322" transform="matrix(1 0 0 -1 36 429.264)" fill="white"/>
<circle cx="9" cy="9" r="9" transform="matrix(1 0 0 -1 280 18.0001)" fill="#FFAE00"/>
</svg>
