<svg width="379" height="1297" viewBox="0 0 379 1297" fill="none" xmlns="http://www.w3.org/2000/svg">
<path d="M48.7209 169.823L71.7976 184.118L97.2648 174.721L82.9698 197.798L92.3669 223.265L69.2902 208.97L43.823 218.367L58.118 195.29L48.7209 169.823Z" fill="white"/>
<path d="M265.255 1225.2L290.534 1235.1L313.886 1221.26L303.992 1246.53L317.832 1269.89L292.554 1259.99L269.201 1273.83L279.096 1248.55L265.255 1225.2Z" fill="white"/>
<path d="M264.155 575.628L275.645 580.125L286.259 573.834L281.762 585.324L288.053 595.938L276.563 591.441L265.949 597.732L270.446 586.242L264.155 575.628Z" fill="white"/>
<path d="M255.42 322.227L270.464 331.546L287.066 325.42L277.747 340.464L283.873 357.066L268.829 347.747L252.227 353.873L261.546 338.829L255.42 322.227Z" fill="#FFAE00"/>
<path d="M52.7456 482.078L98.2978 510.295L148.569 491.746L120.351 537.298L138.901 587.569L93.3483 559.351L43.0775 577.901L71.295 532.348L52.7456 482.078Z" fill="#FFAE00"/>
<path d="M253.631 956.032L296 970.271L333.293 945.631L319.054 988L343.695 1025.29L301.325 1011.05L264.032 1035.69L278.271 993.325L253.631 956.032Z" fill="#FFAE00"/>
<circle cx="276" cy="53" r="53" fill="#FFAE00"/>
<circle cx="136.5" cy="782.5" r="73.5" fill="white"/>
<circle cx="96" cy="1075" r="26" fill="white"/>
</svg>
