<svg width="51" height="51" viewBox="0 0 51 51" fill="none" xmlns="http://www.w3.org/2000/svg">
<mask id="mask0_137_128" style="mask-type:alpha" maskUnits="userSpaceOnUse" x="0" y="0" width="51" height="51">
<rect width="51" height="51" fill="#D9D9D9"/>
</mask>
<g mask="url(#mask0_137_128)">
<path d="M25.4999 34L33.9999 25.5L31.0249 22.525L27.6249 25.925V17H23.3749V25.925L19.9749 22.525L16.9999 25.5L25.4999 34ZM25.4999 46.75C22.5603 46.75 19.7978 46.1922 17.2124 45.0766C14.627 43.9609 12.378 42.4469 10.4655 40.5344C8.553 38.6219 7.03894 36.3729 5.92332 33.7875C4.80769 31.2021 4.24988 28.4396 4.24988 25.5C4.24988 22.5604 4.80769 19.7979 5.92332 17.2125C7.03894 14.6271 8.553 12.3781 10.4655 10.4656C12.378 8.55312 14.627 7.03906 17.2124 5.92344C19.7978 4.80781 22.5603 4.25 25.4999 4.25C28.4395 4.25 31.202 4.80781 33.7874 5.92344C36.3728 7.03906 38.6218 8.55312 40.5343 10.4656C42.4468 12.3781 43.9608 14.6271 45.0764 17.2125C46.1921 19.7979 46.7499 22.5604 46.7499 25.5C46.7499 28.4396 46.1921 31.2021 45.0764 33.7875C43.9608 36.3729 42.4468 38.6219 40.5343 40.5344C38.6218 42.4469 36.3728 43.9609 33.7874 45.0766C31.202 46.1922 28.4395 46.75 25.4999 46.75ZM25.4999 42.5C30.2457 42.5 34.2655 40.8531 37.5593 37.5594C40.853 34.2656 42.4999 30.2458 42.4999 25.5C42.4999 20.7542 40.853 16.7344 37.5593 13.4406C34.2655 10.1469 30.2457 8.5 25.4999 8.5C20.754 8.5 16.7343 10.1469 13.4405 13.4406C10.1468 16.7344 8.49988 20.7542 8.49988 25.5C8.49988 30.2458 10.1468 34.2656 13.4405 37.5594C16.7343 40.8531 20.754 42.5 25.4999 42.5Z" fill="#560088"/>
</g>
</svg>
