<svg width="62" height="62" viewBox="0 0 62 62" fill="none" xmlns="http://www.w3.org/2000/svg">
<path fill-rule="evenodd" clip-rule="evenodd" d="M31 5.1665C16.7322 5.1665 5.16663 16.7321 5.16663 30.9998C5.16663 35.8823 6.52288 40.4548 8.88146 44.3505L6.57713 52.1832C6.44482 52.6329 6.43611 53.1099 6.55192 53.5642C6.66773 54.0184 6.90378 54.4331 7.23525 54.7645C7.56673 55.096 7.98138 55.3321 8.43562 55.4479C8.88986 55.5637 9.36691 55.555 9.81663 55.4227L17.6493 53.1183C21.676 55.5543 26.2937 56.8392 31 56.8332C45.2677 56.8332 56.8333 45.2676 56.8333 30.9998C56.8333 16.7321 45.2677 5.1665 31 5.1665ZM25.1565 36.8459C30.3825 42.0694 35.371 42.7592 37.1328 42.8238C39.8117 42.9219 42.4209 40.8759 43.4361 38.5018C43.5632 38.2063 43.6091 37.8822 43.5692 37.5629C43.5292 37.2437 43.4048 36.9409 43.2088 36.6858C41.7931 34.8774 39.8789 33.578 38.0085 32.2863C37.6183 32.0157 37.1382 31.907 36.6694 31.9831C36.2006 32.0593 35.7796 32.3143 35.495 32.6945L33.945 35.0583C33.8631 35.1848 33.7361 35.2756 33.5898 35.312C33.4435 35.3485 33.2888 35.3279 33.157 35.2546C32.1056 34.6527 30.5737 33.6297 29.4732 32.5292C28.3727 31.4287 27.4117 29.9665 26.8718 28.9823C26.8065 28.8568 26.788 28.7123 26.8197 28.5745C26.8515 28.4367 26.9313 28.3147 27.0449 28.2305L29.4319 26.4583C29.7735 26.1628 29.9941 25.7516 30.0513 25.3035C30.1085 24.8554 29.9983 24.4019 29.7419 24.03C28.5845 22.3353 27.236 20.1808 25.2805 18.7523C25.0275 18.5705 24.732 18.4572 24.4224 18.4233C24.1128 18.3893 23.7997 18.4359 23.5135 18.5585C21.1368 19.5763 19.0805 22.1855 19.1786 24.8696C19.2432 26.6314 19.933 31.6198 25.1565 36.8459Z" fill="white"/>
</svg>
