<svg width="509" height="891" viewBox="0 0 509 891" fill="none" xmlns="http://www.w3.org/2000/svg">
<path d="M108.523 451.601L126.019 448.948L134.692 433.523L137.346 451.019L152.771 459.692L135.274 462.346L126.601 477.771L123.948 460.275L108.523 451.601Z" fill="white"/>
<path d="M366.224 200.883L398.865 162.544L388.724 113.224L427.062 145.865L476.382 135.724L443.741 174.063L453.883 223.382L415.544 190.742L366.224 200.883Z" fill="white"/>
<path d="M214.765 352.426L231.941 356.685L245.867 345.765L241.608 362.941L252.528 376.867L235.352 372.608L221.426 383.528L225.685 366.352L214.765 352.426Z" fill="white"/>
<path d="M347.837 442.519L385.574 449.371L414.194 423.837L407.342 461.574L432.875 490.194L395.138 483.342L366.519 508.876L373.371 471.138L347.837 442.519Z" fill="white"/>
<path d="M52.5415 269.396L83.5161 276.265L107.989 256.073L101.119 287.048L121.311 311.52L90.3364 304.651L65.8638 324.843L72.7333 293.868L52.5415 269.396Z" fill="#560088"/>
<mask id="mask0_129_86" style="mask-type:alpha" maskUnits="userSpaceOnUse" x="89" y="578" width="313" height="313">
<circle cx="245.5" cy="734.5" r="156.5" fill="#560088"/>
</mask>
<g mask="url(#mask0_129_86)">
<rect x="23.0314" y="363.251" width="450.552" height="374.758" fill="#560088"/>
</g>
<circle cx="367" cy="340" r="23" fill="#560088"/>
<circle cx="190.5" cy="127.5" r="65.5" fill="#560088"/>
<circle cx="33.5" cy="33.5" r="33.5" fill="white"/>
<circle cx="264.5" cy="532.5" r="17.5" fill="#560088"/>
</svg>
