<svg width="62" height="63" viewBox="0 0 62 63" fill="none" xmlns="http://www.w3.org/2000/svg">
<path d="M33.6728 5C36.5977 5.00765 38.0822 5.02295 39.3639 5.05865L39.8683 5.0765C40.4507 5.0969 41.0253 5.1224 41.7194 5.153C44.4857 5.28049 46.3732 5.70888 48.0293 6.33872C49.7452 6.9864 51.1907 7.86358 52.6363 9.2788C53.9588 10.5531 54.9818 12.0951 55.6339 13.7973C56.2761 15.4216 56.7129 17.2729 56.8429 19.9885C56.8741 20.6668 56.9001 21.2304 56.9209 21.8041L56.9365 22.2988C56.9755 23.5534 56.9911 25.0094 56.9963 27.878L56.9989 29.7803V33.1207C57.0052 34.9807 56.9852 36.8406 56.9391 38.7L56.9235 39.1947C56.9027 39.7684 56.8767 40.3319 56.8455 41.0102C56.7155 43.7259 56.2735 45.5746 55.6339 47.2015C54.9818 48.9036 53.9588 50.4457 52.6363 51.72C51.337 53.0171 49.7648 54.0205 48.0293 54.66C46.3732 55.2899 44.4857 55.7183 41.7194 55.8458L39.8683 55.9223L39.3639 55.9376C38.0822 55.9733 36.5977 55.9911 33.6728 55.9962L31.7333 55.9988H28.3301C26.4329 56.0053 24.5357 55.9858 22.639 55.9401L22.1346 55.9248C21.5174 55.9019 20.9004 55.8755 20.2835 55.8458C17.5172 55.7183 15.6297 55.2899 13.971 54.66C12.2365 54.0202 10.6651 53.0168 9.36666 51.72C8.04318 50.4459 7.01926 48.9039 6.36641 47.2015C5.72424 45.5772 5.28746 43.7259 5.15747 41.0102L5.07947 39.1947L5.06648 38.7C5.01855 36.8406 4.99688 34.9807 5.00148 33.1207V27.878C4.99428 26.0181 5.01335 24.1582 5.05868 22.2988L5.07688 21.8041C5.09767 21.2304 5.12367 20.6668 5.15487 19.9885C5.28486 17.2729 5.72164 15.4241 6.36381 13.7973C7.01818 12.0944 8.04391 10.5523 9.36926 9.2788C10.667 7.98228 12.2374 6.97894 13.971 6.33872C15.6297 5.70888 17.5146 5.28049 20.2835 5.153C20.9751 5.1224 21.5522 5.0969 22.1346 5.0765L22.639 5.0612C24.5348 5.01589 26.4311 4.99634 28.3275 5.00255L33.6728 5ZM31.0002 17.7497C27.5525 17.7497 24.2461 19.093 21.8082 21.484C19.3704 23.875 18.0008 27.118 18.0008 30.4994C18.0008 33.8808 19.3704 37.1237 21.8082 39.5148C24.2461 41.9058 27.5525 43.2491 31.0002 43.2491C34.4478 43.2491 37.7542 41.9058 40.1921 39.5148C42.6299 37.1237 43.9995 33.8808 43.9995 30.4994C43.9995 27.118 42.6299 23.875 40.1921 21.484C37.7542 19.093 34.4478 17.7497 31.0002 17.7497ZM31.0002 22.8496C32.0244 22.8494 33.0387 23.0471 33.985 23.4314C34.9314 23.8157 35.7913 24.379 36.5157 25.0892C37.2401 25.7995 37.8147 26.6427 38.2069 27.5707C38.599 28.4988 38.8009 29.4935 38.8011 30.4981C38.8012 31.5027 38.5997 32.4975 38.2079 33.4257C37.8161 34.3538 37.2417 35.1972 36.5175 35.9077C35.7934 36.6182 34.9337 37.1818 33.9874 37.5664C33.0412 37.951 32.027 38.149 31.0028 38.1492C28.9342 38.1492 26.9503 37.3432 25.4876 35.9086C24.0249 34.474 23.2032 32.5282 23.2032 30.4994C23.2032 28.4705 24.0249 26.5248 25.4876 25.0901C26.9503 23.6555 28.9342 22.8496 31.0028 22.8496M44.6521 13.9248C43.7902 13.9248 42.9636 14.2606 42.3541 14.8584C41.7446 15.4561 41.4022 16.2668 41.4022 17.1122C41.4022 17.9576 41.7446 18.7683 42.3541 19.3661C42.9636 19.9638 43.7902 20.2996 44.6521 20.2996C45.514 20.2996 46.3406 19.9638 46.9501 19.3661C47.5595 18.7683 47.9019 17.9576 47.9019 17.1122C47.9019 16.2668 47.5595 15.4561 46.9501 14.8584C46.3406 14.2606 45.514 13.9248 44.6521 13.9248Z" fill="white"/>
</svg>
