<svg width="279" height="570" viewBox="0 0 279 570" fill="none" xmlns="http://www.w3.org/2000/svg">
<path d="M570 285C570 442.401 442.401 570 285 570C127.599 570 0 442.401 0 285C0 127.599 127.599 0 285 0C442.401 0 570 127.599 570 285Z" fill="#FFAE00"/>
<path d="M496 285C496 401.532 401.532 496 285 496C168.468 496 74 401.532 74 285C74 168.468 168.468 74 285 74C401.532 74 496 168.468 496 285Z" fill="#560088"/>
<path d="M219.684 456.408L239.32 433.023L245.668 435.517L221.324 462.618L217.266 461.024L219.684 456.408ZM222.697 426.494L221.211 457.008L219.862 462.044L215.783 460.441L216.327 423.991L222.697 426.494ZM218.475 438.458L220.335 433.724L237.372 440.417L235.513 445.151L218.475 438.458Z" fill="white"/>
<path d="M198.858 437.078L209.412 420.154L214.662 423.428L201.243 444.946L196.311 441.87L198.858 437.078ZM203.054 432.21L204.605 433.177C203.616 434.733 202.519 436.019 201.315 437.036C200.11 438.052 198.851 438.786 197.538 439.238C196.212 439.682 194.879 439.826 193.539 439.672C192.199 439.518 190.892 439.044 189.619 438.25C188.585 437.605 187.741 436.876 187.088 436.064C186.435 435.251 186.008 434.34 185.808 433.332C185.595 432.315 185.652 431.191 185.979 429.958C186.284 428.73 186.904 427.368 187.838 425.869L196.446 412.068L201.736 415.367L193.104 429.208C192.492 430.189 192.154 431.056 192.09 431.808C192.013 432.552 192.172 433.212 192.566 433.79C192.948 434.359 193.53 434.888 194.312 435.376C195.121 435.88 195.933 436.157 196.75 436.206C197.545 436.26 198.326 436.13 199.092 435.816C199.846 435.494 200.56 435.028 201.235 434.417C201.91 433.807 202.516 433.071 203.054 432.21Z" fill="white"/>
<path d="M176.976 403.161L156.592 425.995L151.941 421.843L175.915 394.987L180.111 398.733L176.976 403.161ZM184.476 419.219L184.148 419.586C182.858 421.031 181.524 422.197 180.147 423.083C178.748 423.97 177.348 424.553 175.947 424.831C174.546 425.11 173.183 425.077 171.858 424.731C170.521 424.375 169.269 423.677 168.104 422.637C166.973 421.627 166.191 420.521 165.758 419.317C165.313 418.103 165.167 416.811 165.322 415.441C165.465 414.06 165.871 412.632 166.54 411.156C167.198 409.691 168.06 408.198 169.125 406.677L170.014 405.68C171.374 404.485 172.734 403.49 174.094 402.693C175.455 401.897 176.812 401.349 178.168 401.051C179.501 400.754 180.796 400.758 182.053 401.063C183.309 401.368 184.509 402.031 185.651 403.05C186.805 404.081 187.629 405.246 188.123 406.546C188.606 407.835 188.783 409.197 188.654 410.632C188.513 412.057 188.092 413.503 187.389 414.97C186.675 416.427 185.704 417.843 184.476 419.219ZM179.515 415.45L179.843 415.082C180.571 414.266 181.183 413.441 181.678 412.605C182.173 411.769 182.507 410.936 182.682 410.108C182.845 409.29 182.818 408.512 182.599 407.772C182.368 407.021 181.897 406.329 181.186 405.694C180.277 404.882 179.354 404.414 178.418 404.291C177.459 404.168 176.504 404.31 175.554 404.719C174.593 405.138 173.67 405.749 172.786 406.552L170.335 409.297C169.758 410.038 169.303 410.794 168.97 411.566C168.626 412.326 168.436 413.079 168.401 413.822C168.354 414.555 168.472 415.268 168.754 415.96C169.037 416.652 169.522 417.305 170.21 417.919C170.921 418.554 171.668 418.938 172.45 419.07C173.222 419.215 174.009 419.153 174.813 418.887C175.617 418.62 176.417 418.193 177.214 417.605C177.999 417.007 178.766 416.289 179.515 415.45Z" fill="white"/>
<path d="M133.466 367.234L144.739 360.197C145.547 360.282 146.555 360.583 147.762 361.1C148.961 361.604 150.248 362.441 151.622 363.609C152.982 364.786 154.325 366.434 155.649 368.555C156.799 370.397 157.545 372.271 157.887 374.176C158.215 376.089 158.127 377.968 157.621 379.813C157.114 381.657 156.186 383.416 154.835 385.088C153.485 386.76 151.703 388.287 149.489 389.669L147.581 390.861C145.367 392.242 143.225 393.193 141.154 393.712C139.076 394.218 137.113 394.319 135.266 394.017C133.412 393.701 131.713 393.002 130.172 391.92C128.622 390.824 127.277 389.362 126.135 387.533C124.604 385.081 123.75 382.814 123.574 380.732C123.39 378.637 123.742 376.722 124.631 374.989C125.506 373.263 126.792 371.724 128.489 370.37L131.815 375.698C130.899 376.472 130.199 377.314 129.717 378.223C129.221 379.141 129.014 380.136 129.094 381.209C129.153 382.278 129.58 383.448 130.374 384.72C131.045 385.794 131.848 386.609 132.786 387.166C133.723 387.723 134.769 388.028 135.925 388.079C137.081 388.131 138.347 387.931 139.722 387.478C141.088 387.011 142.54 386.298 144.078 385.338L146.026 384.122C147.577 383.154 148.856 382.134 149.864 381.063C150.858 380.001 151.58 378.914 152.029 377.805C152.457 376.69 152.606 375.557 152.476 374.404C152.324 373.246 151.892 372.097 151.181 370.958C150.535 369.924 149.915 369.123 149.321 368.554C148.705 367.981 148.143 367.567 147.635 367.314C147.126 367.06 146.683 366.895 146.303 366.819L140.876 370.207L144.463 375.953L140.467 378.447L133.466 367.234Z" fill="white"/>
<path d="M124.371 355.06L142.985 347.267L145.374 352.975L121.982 362.768L119.72 357.363L124.371 355.06ZM116.464 350.011L121.818 347.871C121.893 348.212 122.001 348.59 122.141 349.006C122.275 349.407 122.415 349.781 122.559 350.127C122.928 351.006 123.373 351.726 123.895 352.286C124.404 352.853 124.975 353.266 125.608 353.525C126.236 353.771 126.923 353.873 127.668 353.832C128.399 353.797 129.174 353.625 129.993 353.316L130.357 354.612C128.873 355.233 127.433 355.658 126.038 355.887C124.643 356.115 123.349 356.14 122.156 355.962C120.964 355.783 119.927 355.37 119.046 354.723C118.145 354.067 117.456 353.17 116.979 352.031C116.846 351.714 116.733 351.363 116.64 350.979C116.527 350.586 116.468 350.263 116.464 350.011Z" fill="white"/>
<path d="M126.924 341.026L126.448 341.149C124.647 341.613 122.924 341.783 121.278 341.658C119.618 341.537 118.101 341.13 116.728 340.435C115.354 339.74 114.175 338.761 113.188 337.498C112.186 336.24 111.451 334.703 110.983 332.887C110.507 331.041 110.404 329.325 110.673 327.739C110.923 326.142 111.481 324.707 112.348 323.435C113.214 322.163 114.345 321.073 115.741 320.165C117.121 319.26 118.712 318.576 120.512 318.112L120.989 317.99C122.774 317.53 124.498 317.36 126.158 317.481C127.804 317.605 129.321 318.013 130.709 318.704C132.082 319.399 133.262 320.378 134.249 321.641C135.236 322.903 135.965 324.45 136.437 326.281C136.904 328.096 137.013 329.803 136.763 331.4C136.513 332.997 135.955 334.432 135.089 335.704C134.207 336.98 133.076 338.07 131.696 338.974C130.3 339.882 128.71 340.566 126.924 341.026ZM124.904 335.157L125.38 335.035C126.455 334.758 127.434 334.393 128.317 333.939C129.201 333.486 129.942 332.948 130.54 332.326C131.138 331.704 131.551 330.992 131.781 330.191C131.991 329.378 131.969 328.48 131.716 327.497C131.466 326.529 131.055 325.747 130.483 325.152C129.895 324.562 129.189 324.138 128.364 323.883C127.536 323.612 126.626 323.492 125.633 323.522C124.641 323.551 123.607 323.705 122.533 323.982L122.056 324.104C120.997 324.377 120.033 324.738 119.165 325.188C118.281 325.642 117.542 326.187 116.948 326.824C116.335 327.45 115.916 328.171 115.69 328.988C115.446 329.793 115.451 330.687 115.704 331.671C115.953 332.639 116.38 333.417 116.983 334.003C117.571 334.594 118.284 335.015 119.123 335.267C119.948 335.523 120.856 335.636 121.849 335.606C122.826 335.58 123.845 335.43 124.904 335.157Z" fill="white"/>
<path d="M125.548 304.796L105.998 300.341L105.775 296.41L112.487 297.203L131.478 301.736L131.67 305.129L125.548 304.796ZM106.487 308.952L125.532 303.693L131.548 302.976L131.77 306.884L106.828 314.966L106.487 308.952ZM124.484 290.184L105.252 287.19L104.913 281.2L130.606 286.362L130.827 290.27L124.484 290.184ZM105.741 295.801L124.477 289.222L130.707 288.141L130.899 291.534L112.546 298.232L105.965 299.756L105.741 295.801Z" fill="white"/>
<path d="M101.366 241.247L134.634 248.845L133.205 255.106L99.9362 247.508L101.366 241.247ZM103.725 230.919L108.683 232.052L102.562 258.854L97.6036 257.721L103.725 230.919Z" fill="white"/>
<path d="M125.093 234.701L124.639 234.512C122.923 233.796 121.446 232.891 120.209 231.799C118.957 230.701 117.993 229.461 117.318 228.078C116.642 226.695 116.291 225.203 116.266 223.601C116.226 221.993 116.567 220.323 117.29 218.593C118.024 216.834 118.977 215.403 120.148 214.3C121.311 213.177 122.622 212.37 124.08 211.878C125.538 211.386 127.098 211.199 128.759 211.317C130.405 211.428 132.087 211.842 133.803 212.559L134.257 212.748C135.958 213.459 137.435 214.363 138.686 215.461C139.924 216.553 140.887 217.793 141.578 219.182C142.253 220.565 142.604 222.057 142.629 223.659C142.655 225.262 142.303 226.935 141.575 228.68C140.853 230.41 139.91 231.837 138.747 232.96C137.584 234.083 136.274 234.89 134.815 235.382C133.343 235.868 131.783 236.055 130.136 235.943C128.476 235.826 126.794 235.412 125.093 234.701ZM127.022 228.802L127.476 228.992C128.5 229.419 129.501 229.718 130.479 229.889C131.458 230.061 132.373 230.079 133.225 229.944C134.077 229.808 134.837 229.49 135.503 228.99C136.161 228.468 136.685 227.739 137.076 226.802C137.462 225.879 137.605 225.008 137.507 224.188C137.395 223.362 137.087 222.599 136.584 221.898C136.087 221.182 135.433 220.537 134.623 219.962C133.814 219.387 132.897 218.886 131.873 218.458L131.419 218.269C130.41 217.847 129.423 217.554 128.459 217.389C127.481 217.217 126.563 217.207 125.704 217.356C124.838 217.486 124.068 217.808 123.396 218.323C122.716 218.818 122.18 219.534 121.788 220.471C121.403 221.394 121.274 222.271 121.401 223.103C121.513 223.929 121.828 224.695 122.346 225.402C122.849 226.103 123.505 226.741 124.315 227.316C125.11 227.885 126.013 228.381 127.022 228.802Z" fill="white"/>
<path d="M134.663 186.316L137.692 181.577L158.408 194.818C160.343 196.055 161.713 197.524 162.517 199.225C163.343 200.922 163.625 202.743 163.364 204.69C163.115 206.645 162.356 208.617 161.085 210.605C160.538 211.46 159.826 212.313 158.95 213.162C158.081 213.998 157.096 214.713 155.994 215.306C154.913 215.895 153.777 216.235 152.587 216.327L151.008 212.008C152.292 211.827 153.431 211.424 154.424 210.798C155.431 210.18 156.267 209.352 156.932 208.312C157.605 207.258 157.98 206.237 158.056 205.247C158.154 204.253 157.954 203.318 157.456 202.444C156.979 201.564 156.201 200.78 155.122 200.089L139.225 189.928L134.663 186.316ZM136.376 207.745L135.961 207.48C134.329 206.437 132.974 205.292 131.896 204.048C130.806 202.794 130.016 201.492 129.526 200.14C129.045 198.775 128.877 197.398 129.024 196.008C129.179 194.605 129.681 193.239 130.531 191.909C131.432 190.501 132.446 189.48 133.574 188.847C134.71 188.201 135.954 187.865 137.306 187.839C138.666 187.8 140.111 188.019 141.642 188.497C143.168 188.953 144.771 189.578 146.45 190.374L147.576 191.094C148.972 192.246 150.172 193.43 151.175 194.646C152.186 195.848 152.955 197.082 153.482 198.346C153.996 199.602 154.199 200.881 154.089 202.183C153.98 203.486 153.505 204.795 152.663 206.112C151.822 207.428 150.794 208.441 149.581 209.149C148.368 209.857 147.035 210.275 145.581 210.403C144.136 210.517 142.628 210.351 141.059 209.905C139.49 209.458 137.929 208.738 136.376 207.745ZM139.293 202.267L139.708 202.532C140.63 203.121 141.551 203.58 142.472 203.909C143.393 204.238 144.285 204.409 145.147 204.423C145.997 204.428 146.778 204.251 147.491 203.89C148.203 203.53 148.816 202.948 149.33 202.145C150.02 201.065 150.36 200.04 150.35 199.07C150.335 198.077 150.046 197.151 149.483 196.291C148.916 195.409 148.166 194.595 147.232 193.85L144.132 191.868C143.3 191.429 142.477 191.107 141.662 190.902C140.856 190.683 140.088 190.609 139.356 190.68C138.625 190.75 137.932 190.993 137.277 191.409C136.622 191.825 136.033 192.441 135.512 193.257C135.007 194.047 134.743 194.851 134.719 195.671C134.683 196.482 134.852 197.277 135.227 198.054C135.602 198.831 136.134 199.58 136.824 200.299C137.522 201.005 138.346 201.661 139.293 202.267Z" fill="white"/>
<path d="M170.01 182.504C168.716 183.925 167.322 184.99 165.829 185.701C164.335 186.413 162.816 186.793 161.27 186.843C159.722 186.871 158.206 186.598 156.719 186.026C155.231 185.432 153.852 184.556 152.582 183.398L151.889 182.767C150.445 181.452 149.323 180.049 148.524 178.56C147.713 177.061 147.227 175.54 147.067 173.999C146.907 172.458 147.08 170.946 147.586 169.463C148.092 167.979 148.929 166.596 150.097 165.314C151.307 163.986 152.6 163.019 153.977 162.412C155.342 161.796 156.739 161.515 158.168 161.57C159.598 161.625 161.036 161.995 162.484 162.68C163.92 163.354 165.319 164.312 166.682 165.554L168.605 167.306L155.221 181.998L152.067 179.125L161.348 168.938L161.002 168.622C160.253 167.982 159.463 167.516 158.631 167.223C157.787 166.919 156.944 166.87 156.102 167.075C155.248 167.27 154.437 167.789 153.669 168.632C153.048 169.313 152.657 170.045 152.494 170.827C152.33 171.586 152.367 172.381 152.605 173.211C152.842 174.018 153.256 174.839 153.848 175.674C154.44 176.51 155.186 177.338 156.087 178.158L156.78 178.79C157.566 179.505 158.388 180.064 159.247 180.467C160.117 180.858 160.99 181.071 161.865 181.108C162.74 181.123 163.584 180.962 164.398 180.625C165.211 180.266 165.964 179.706 166.659 178.944C167.532 177.985 168.137 176.95 168.472 175.84C168.806 174.707 168.867 173.515 168.654 172.264L173.144 172.138C173.364 173.057 173.434 174.093 173.355 175.247C173.287 176.39 172.994 177.581 172.476 178.822C171.948 180.052 171.125 181.28 170.01 182.504Z" fill="white"/>
<path d="M173.119 143.703L175.956 147.135L164.754 156.392L161.917 152.959L173.119 143.703ZM160.945 145.675L165.733 141.718L181.2 160.436C181.678 161.014 182.125 161.395 182.54 161.579C182.955 161.763 183.364 161.779 183.767 161.629C184.17 161.479 184.588 161.224 185.022 160.866C185.335 160.607 185.609 160.35 185.844 160.095C186.079 159.84 186.272 159.62 186.423 159.434L189.397 162.997C189.109 163.458 188.747 163.939 188.311 164.442C187.887 164.934 187.361 165.439 186.735 165.957C185.663 166.842 184.574 167.438 183.469 167.744C182.353 168.037 181.234 167.958 180.112 167.508C178.979 167.045 177.851 166.133 176.726 164.772L160.945 145.675Z" fill="white"/>
<path d="M179.596 126.234L198.276 157.008L192.967 160.231L174.287 129.456L179.596 126.234ZM190.381 145.898L188.818 146.847C187.902 145.337 187.259 143.827 186.89 142.315C186.52 140.802 186.419 139.356 186.586 137.975C186.745 136.581 187.174 135.315 187.873 134.178C188.585 133.033 189.562 132.083 190.804 131.329C191.873 130.68 192.935 130.246 193.989 130.026C195.049 129.785 196.092 129.801 197.117 130.075C198.142 130.348 199.142 130.911 200.116 131.764C201.096 132.595 202.04 133.758 202.948 135.254L211.339 149.078L206.01 152.313L197.594 138.449C196.986 137.447 196.361 136.748 195.718 136.352C195.067 135.943 194.391 135.778 193.69 135.856C193.001 135.927 192.263 136.201 191.475 136.68C190.62 137.199 189.987 137.811 189.575 138.518C189.155 139.212 188.92 139.967 188.867 140.785C188.829 141.594 188.936 142.434 189.19 143.304C189.457 144.165 189.854 145.03 190.381 145.898Z" fill="white"/>
<path d="M226.679 142.54C224.891 143.244 223.17 143.586 221.517 143.566C219.863 143.546 218.331 143.218 216.921 142.581C215.52 141.924 214.279 141.011 213.197 139.842C212.124 138.652 211.272 137.258 210.642 135.659L210.298 134.787C209.582 132.97 209.193 131.217 209.132 129.528C209.066 127.824 209.3 126.246 209.836 124.792C210.371 123.338 211.193 122.057 212.301 120.948C213.409 119.84 214.77 118.968 216.384 118.332C218.056 117.673 219.643 117.375 221.146 117.438C222.643 117.486 224.02 117.85 225.279 118.53C226.538 119.209 227.666 120.175 228.663 121.428C229.655 122.666 230.489 124.143 231.165 125.858L232.119 128.279L213.628 135.566L212.064 131.597L224.885 126.544L224.714 126.108C224.324 125.204 223.82 124.437 223.202 123.807C222.579 123.163 221.844 122.747 220.998 122.56C220.145 122.358 219.189 122.466 218.128 122.884C217.27 123.222 216.596 123.706 216.105 124.336C215.623 124.946 215.306 125.676 215.154 126.525C215.01 127.354 215.02 128.274 215.183 129.285C215.346 130.295 215.651 131.367 216.098 132.501L216.442 133.373C216.831 134.362 217.323 135.226 217.917 135.966C218.526 136.701 219.215 137.277 219.984 137.696C220.763 138.095 221.591 138.322 222.47 138.379C223.358 138.415 224.282 138.245 225.241 137.867C226.448 137.391 227.446 136.729 228.237 135.88C229.036 135.011 229.616 133.968 229.976 132.751L234.062 134.617C233.854 135.539 233.461 136.5 232.881 137.501C232.316 138.496 231.528 139.437 230.516 140.322C229.499 141.193 228.22 141.932 226.679 142.54Z" fill="white"/>
<path d="M242.277 115.308L247.219 134.873L241.22 136.388L235.009 111.801L240.69 110.366L242.277 115.308ZM248.444 108.238L249.765 113.851C249.417 113.875 249.026 113.925 248.594 114.002C248.178 114.075 247.788 114.157 247.424 114.249C246.5 114.483 245.722 114.816 245.09 115.25C244.455 115.668 243.961 116.172 243.61 116.76C243.274 117.344 243.071 118.008 243.001 118.751C242.927 119.479 242.982 120.271 243.166 121.127L241.831 121.295C241.437 119.734 241.23 118.247 241.212 116.834C241.193 115.42 241.36 114.137 241.714 112.984C242.067 111.831 242.629 110.867 243.401 110.092C244.183 109.299 245.173 108.75 246.37 108.448C246.703 108.364 247.067 108.304 247.461 108.269C247.866 108.215 248.194 108.205 248.444 108.238Z" fill="white"/>
<path d="M126.378 502.519L122.215 498.806L132.349 473.426L108.308 486.405L104.127 482.676L136.303 465.647L139.644 468.626L126.378 502.519ZM128.477 504.39L124.401 500.756L139.375 482.486L146.379 474.632L151.189 478.922L128.477 504.39ZM106.122 484.455L102.028 480.805L124.741 455.336L129.551 459.625L122.547 467.48L106.122 484.455Z" fill="#560088"/>
<path d="M107.361 443.88L98.4428 451.447C97.7875 452.003 97.3176 452.596 97.0331 453.227C96.7487 453.858 96.6725 454.517 96.8046 455.204C96.9368 455.891 97.3061 456.592 97.9126 457.307C98.4484 457.938 99.0257 458.401 99.6445 458.696C100.253 458.978 100.86 459.078 101.466 458.995C102.059 458.921 102.606 458.672 103.107 458.248L107.125 462.984C106.327 463.661 105.408 464.112 104.37 464.338C103.32 464.573 102.217 464.577 101.06 464.349C99.8817 464.119 98.7121 463.647 97.5514 462.931C96.3806 462.203 95.2695 461.219 94.2181 459.98C92.9747 458.515 92.118 456.998 91.6479 455.429C91.1558 453.859 91.1262 452.327 91.5591 450.833C91.9819 449.327 92.9439 447.937 94.4451 446.663L102.88 439.506C103.845 438.687 104.623 437.925 105.213 437.219C105.781 436.512 106.209 435.821 106.497 435.146L106.801 434.888L110.88 439.696C110.583 440.337 110.11 441.035 109.461 441.791C108.799 442.557 108.099 443.254 107.361 443.88ZM99.1328 449.724L101.908 447.308L104.441 450.292C105.067 451.031 105.696 451.615 106.326 452.043C106.944 452.482 107.547 452.759 108.137 452.873C108.714 452.998 109.275 452.983 109.82 452.828C110.353 452.684 110.863 452.404 111.352 451.99C111.828 451.585 112.166 451.114 112.366 450.576C112.555 450.026 112.586 449.447 112.458 448.838C112.309 448.227 111.991 447.635 111.506 447.064C110.799 446.23 110.015 445.644 109.156 445.308C108.285 444.981 107.458 444.853 106.677 444.922C105.895 444.991 105.274 445.2 104.813 445.55L105.697 442.464C106.328 442.216 107.058 442.026 107.889 441.895C108.72 441.764 109.597 441.758 110.518 441.878C111.439 441.997 112.368 442.295 113.305 442.771C114.241 443.247 115.124 443.973 115.953 444.95C117.014 446.201 117.714 447.534 118.053 448.947C118.392 450.361 118.369 451.722 117.984 453.032C117.6 454.342 116.854 455.467 115.745 456.407C114.721 457.276 113.654 457.854 112.544 458.14C111.434 458.426 110.293 458.421 109.12 458.125C107.935 457.84 106.735 457.259 105.521 456.384C104.285 455.506 103.055 454.347 101.832 452.905L99.1328 449.724Z" fill="#560088"/>
<path d="M70.8382 446.445L100.575 426.112L104.067 431.22L74.3307 451.553L70.8382 446.445ZM70.6718 427.309L87.1373 429.423L95.5216 430.93L92.6667 435.267L85.2625 434.737L74.8919 433.48L70.6718 427.309ZM95.1771 418.218L89.858 431.367L84.2213 430.224L91.129 412.298L95.1771 418.218Z" fill="#560088"/>
<path d="M85.2693 400.287C86.183 401.978 86.7289 403.645 86.9071 405.29C87.0852 406.934 86.9426 408.494 86.4792 409.97C85.9946 411.44 85.2368 412.782 84.2058 413.996C83.1536 415.204 81.8715 416.217 80.3594 417.034L79.5346 417.479C77.8164 418.408 76.1225 419.004 74.4529 419.267C72.7697 419.537 71.1743 419.493 69.6668 419.136C68.1593 418.778 66.7889 418.116 65.5556 417.148C64.3223 416.181 63.2934 414.934 62.4688 413.408C61.6145 411.827 61.1286 410.287 61.0109 408.788C60.8796 407.296 61.0759 405.884 61.5998 404.553C62.1237 403.222 62.9478 401.987 64.0721 400.846C65.1826 399.713 66.5489 398.709 68.1709 397.832L70.4597 396.595L79.9089 414.08L76.1562 416.108L69.6041 403.984L69.1918 404.207C68.3406 404.702 67.6394 405.295 67.088 405.983C66.5229 406.679 66.1981 407.459 66.1137 408.321C66.0155 409.191 66.2376 410.128 66.7799 411.132C67.2182 411.943 67.7794 412.554 68.4637 412.966C69.1268 413.371 69.8891 413.599 70.7506 413.648C71.5909 413.691 72.5029 413.571 73.4867 413.288C74.4705 413.005 75.4984 412.574 76.5706 411.995L77.3954 411.549C78.3301 411.044 79.1293 410.452 79.7928 409.774C80.449 409.082 80.9389 408.329 81.2625 407.514C81.565 406.694 81.6918 405.844 81.6428 404.964C81.5727 404.079 81.2925 403.182 80.8022 402.275C80.1856 401.134 79.4085 400.222 78.4709 399.539C77.5122 398.849 76.4072 398.398 75.156 398.187L76.5194 393.906C77.4593 394.002 78.4609 394.278 79.524 394.734C80.5798 395.175 81.6078 395.845 82.6082 396.743C83.5948 397.649 84.4818 398.83 85.2693 400.287Z" fill="#560088"/>
<path d="M70.0978 366.63L72.4854 373.591L67.6815 375.189L65.3092 368.272C64.6654 366.395 63.7117 364.963 62.4481 363.976C61.1697 362.994 59.6356 362.446 57.8459 362.333C56.0414 362.225 54.0381 362.549 51.8359 363.304L50.1731 363.875C48.4735 364.457 47.0367 365.157 45.8628 365.972C44.6889 366.788 43.7827 367.71 43.1443 368.738C42.5008 369.752 42.1299 370.862 42.0317 372.068C41.9334 373.275 42.1174 374.558 42.5838 375.918L45.0625 383.145L40.2517 384.795L37.7729 377.568C37.0328 375.41 36.7208 373.32 36.8367 371.298C36.9476 369.261 37.4598 367.359 38.3735 365.592C39.2673 363.816 40.5336 362.258 42.1724 360.92C43.8062 359.566 45.7833 358.492 48.1037 357.696L49.7221 357.141C52.0278 356.35 54.2482 355.985 56.3833 356.046C58.4986 356.097 60.4543 356.549 62.2504 357.403C64.0415 358.243 65.6083 359.44 66.9509 360.994C68.2936 362.549 69.3425 364.428 70.0978 366.63ZM39.0351 381.248L71.3144 370.177L73.4054 376.274L41.1261 387.345L39.0351 381.248Z" fill="#560088"/>
<path d="M37.4643 346.803L62.084 340.723L63.5732 346.752L38.9535 352.833L37.4643 346.803ZM32.6153 354.833C31.7204 355.054 30.9021 354.934 30.1607 354.473C29.4155 353.997 28.9136 353.236 28.6551 352.19C28.3966 351.143 28.4883 350.243 28.93 349.49C29.368 348.722 30.0345 348.228 30.9295 348.007C31.8093 347.789 32.6218 347.919 33.367 348.394C34.1084 348.855 34.6084 349.609 34.8669 350.655C35.1254 351.702 35.0357 352.609 34.5977 353.378C34.1559 354.13 33.4952 354.615 32.6153 354.833Z" fill="#560088"/>
<path d="M59.3632 326.98L60.4923 333.111L33.2473 338.128C31.3725 338.474 29.731 338.403 28.3225 337.915C26.8987 337.431 25.7334 336.581 24.8264 335.366C23.9194 334.15 23.299 332.636 22.9651 330.823C22.8547 330.224 22.7884 329.648 22.7662 329.096C22.7412 328.529 22.7483 327.963 22.7875 327.4L27.4418 326.662C27.4187 326.968 27.4244 327.301 27.4587 327.66C27.4902 328.004 27.5442 328.383 27.6206 328.798C27.7734 329.628 28.0496 330.308 28.4491 330.838C28.8486 331.368 29.3609 331.734 29.9861 331.937C30.593 332.127 31.3037 332.147 32.1182 331.997L59.3632 326.98ZM33.4935 326.525L37.873 325.718L40.6236 340.655L36.2442 341.461L33.4935 326.525Z" fill="#560088"/>
<path d="M57.01 310.094L57.7179 316.288L30.1939 319.433C28.3 319.65 26.6671 319.467 25.2952 318.884C23.9078 318.304 22.8032 317.376 21.9813 316.102C21.1594 314.828 20.6438 313.275 20.4345 311.443C20.3653 310.838 20.3384 310.259 20.3539 309.706C20.3677 309.139 20.4134 308.575 20.491 308.016L25.1848 307.597C25.1409 307.901 25.1238 308.233 25.1335 308.594C25.1415 308.939 25.1695 309.321 25.2174 309.74C25.3132 310.579 25.5423 311.276 25.9047 311.832C26.267 312.388 26.7531 312.789 27.363 313.034C27.9556 313.265 28.6633 313.333 29.486 313.239L57.01 310.094ZM31.2318 307.874L35.6561 307.368L37.3806 322.457L32.9563 322.963L31.2318 307.874Z" fill="#560088"/>
<path d="M56.4503 290.345C56.5035 292.266 56.239 294 55.6566 295.548C55.0742 297.096 54.2435 298.424 53.1644 299.533C52.0692 300.626 50.7878 301.482 49.32 302.101C47.8361 302.705 46.2351 303.031 44.5171 303.078L43.5799 303.104C41.6275 303.158 39.847 302.926 38.2383 302.408C36.6139 301.89 35.2096 301.132 34.0252 300.133C32.8409 299.134 31.9164 297.925 31.2519 296.506C30.5873 295.086 30.231 293.509 30.183 291.776C30.1332 289.979 30.3939 288.386 30.965 286.994C31.5204 285.603 32.3321 284.432 33.3999 283.48C34.4677 282.528 35.7604 281.797 37.2781 281.286C38.7802 280.776 40.4527 280.495 42.2958 280.444L44.8963 280.372L45.4466 300.239L41.1826 300.357L40.8011 286.581L40.3325 286.594C39.3494 286.653 38.4565 286.865 37.6538 287.231C36.8355 287.598 36.1942 288.147 35.7299 288.879C35.25 289.611 35.0258 290.547 35.0574 291.687C35.0829 292.609 35.3083 293.408 35.7334 294.084C36.1425 294.745 36.7203 295.291 37.467 295.724C38.1976 296.141 39.0657 296.445 40.0714 296.636C41.077 296.827 42.189 296.906 43.4073 296.872L44.3444 296.846C45.4065 296.817 46.3866 296.649 47.2848 296.343C48.1824 296.021 48.9593 295.57 49.6153 294.989C50.2553 294.393 50.7517 293.691 51.1045 292.884C51.4413 292.062 51.5954 291.136 51.5668 290.105C51.5309 288.808 51.2485 287.644 50.7198 286.611C50.1749 285.563 49.3919 284.663 48.3706 283.91L51.5174 280.704C52.3131 281.213 53.0827 281.911 53.8263 282.797C54.5694 283.668 55.185 284.729 55.673 285.982C56.1453 287.235 56.4045 288.689 56.4503 290.345Z" fill="#560088"/>
<path d="M36.0474 268.569L56.1917 269.765L55.8249 275.942L30.5101 274.439L30.8574 268.59L36.0474 268.569ZM31.1701 260.555L36.9201 260.99C36.8373 261.33 36.7674 261.717 36.7102 262.152C36.654 262.571 36.6148 262.968 36.5926 263.342C36.5361 264.294 36.6191 265.136 36.8417 265.869C37.0486 266.602 37.3795 267.224 37.8343 267.736C38.2901 268.233 38.8615 268.627 39.5486 268.918C40.22 269.208 40.9916 269.395 41.8632 269.478L41.6202 270.802C40.0137 270.706 38.5338 270.454 37.1807 270.045C35.8276 269.636 34.6548 269.089 33.6624 268.404C32.67 267.719 31.9209 266.892 31.4149 265.923C30.8943 264.937 30.6706 263.828 30.7437 262.596C30.7641 262.253 30.8171 261.888 30.9026 261.502C30.9735 261.099 31.0627 260.783 31.1701 260.555Z" fill="#560088"/>
<path d="M59.1888 247.972C58.9084 249.873 58.3475 251.536 57.5058 252.959C56.6641 254.383 55.6159 255.547 54.3612 256.452C53.0932 257.339 51.6828 257.96 50.13 258.316C48.564 258.653 46.9308 258.697 45.2304 258.446L44.303 258.31C42.3707 258.025 40.6573 257.488 39.1626 256.699C37.6525 255.908 36.4007 254.917 35.4072 253.729C34.4138 252.54 33.7127 251.189 33.3041 249.675C32.8954 248.162 32.8176 246.548 33.0706 244.832C33.3327 243.054 33.8654 241.53 34.6688 240.258C35.4568 238.984 36.459 237.971 37.6755 237.219C38.892 236.466 40.2919 235.97 41.8752 235.73C43.443 235.487 45.1389 235.5 46.9629 235.769L49.5366 236.148L46.6377 255.811L42.4177 255.189L44.4278 241.555L43.9641 241.486C42.9857 241.374 42.0695 241.428 41.2155 241.65C40.3461 241.869 39.6194 242.299 39.0354 242.939C38.4359 243.577 38.053 244.461 37.8866 245.589C37.7521 246.501 37.8357 247.327 38.1373 248.066C38.4258 248.788 38.9002 249.426 39.5607 249.982C40.2079 250.52 41.0102 250.969 41.9676 251.332C42.925 251.694 44.0066 251.964 45.2123 252.142L46.1398 252.279C47.1909 252.434 48.1853 252.438 49.1229 252.292C50.0627 252.13 50.906 251.82 51.6527 251.362C52.3863 250.886 52.9967 250.281 53.4839 249.547C53.958 248.796 54.2702 247.91 54.4206 246.89C54.6098 245.607 54.5334 244.411 54.1914 243.302C53.8363 242.176 53.221 241.153 52.3457 240.235L56.0001 237.623C56.6955 238.262 57.3327 239.082 57.9115 240.084C58.4927 241.07 58.9151 242.222 59.1788 243.54C59.427 244.856 59.4303 246.333 59.1888 247.972Z" fill="#560088"/>
<path d="M43.3608 222.783L62.6596 227.82L61.097 233.807L36.5596 227.402L38.0276 221.778L43.3608 222.783ZM49.2579 225.339L48.7962 227.108C47.0162 226.627 45.4616 225.963 44.1326 225.116C42.8035 224.268 41.7279 223.285 40.9057 222.166C40.0875 221.032 39.5525 219.802 39.3009 218.477C39.0493 217.152 39.113 215.764 39.4918 214.312C39.7996 213.133 40.2441 212.11 40.8253 211.245C41.4065 210.379 42.1487 209.701 43.052 209.21C43.9592 208.704 45.0498 208.423 46.3237 208.368C47.5865 208.294 49.0721 208.48 50.7805 208.926L66.5188 213.034L64.9444 219.066L49.1606 214.946C48.0419 214.654 47.114 214.59 46.3771 214.753C45.6442 214.901 45.0607 215.249 44.6268 215.798C44.1968 216.332 43.8654 217.044 43.6326 217.936C43.3919 218.859 43.3698 219.717 43.5662 220.511C43.7515 221.286 44.108 221.993 44.6358 222.631C45.1675 223.254 45.8251 223.797 46.6086 224.26C47.3921 224.723 48.2752 225.083 49.2579 225.339Z" fill="#560088"/>
<path d="M48.2857 188.003L52.4792 189.501L47.5896 203.185L43.3961 201.687L48.2857 188.003ZM38.8344 195.925L40.9244 190.076L63.7897 198.247C64.496 198.499 65.0745 198.598 65.5255 198.543C65.9764 198.489 66.3364 198.294 66.6055 197.959C66.8746 197.623 67.1038 197.191 67.2931 196.661C67.4298 196.279 67.5339 195.918 67.6054 195.578C67.677 195.239 67.7301 194.951 67.7648 194.714L72.1427 196.254C72.1311 196.797 72.0663 197.396 71.9485 198.051C71.8359 198.691 71.643 199.394 71.3696 200.159C70.9016 201.468 70.2708 202.537 69.4771 203.365C68.6687 204.188 67.667 204.693 66.4719 204.88C65.2621 205.061 63.8259 204.855 62.1633 204.261L38.8344 195.925Z" fill="#560088"/>
<path d="M54.8052 153.694L85.0677 169.465L82.0999 175.16L51.8374 159.389L54.8052 153.694ZM59.7009 144.3L64.2111 146.65L51.5062 171.03L46.9959 168.68L59.7009 144.3Z" fill="#560088"/>
<path d="M65.5588 131.679L95.3905 151.83L91.9139 156.977L62.0822 136.826L65.5588 131.679ZM83.5749 145.037L82.5516 146.552C81.0885 145.563 79.8731 144.46 78.9055 143.24C77.9378 142.021 77.2413 140.749 76.816 139.425C76.3778 138.092 76.2385 136.762 76.3983 135.437C76.5668 134.099 77.0577 132.828 77.8711 131.624C78.5708 130.588 79.3538 129.75 80.2201 129.11C81.0822 128.447 82.036 128.026 83.0815 127.846C84.127 127.666 85.2706 127.76 86.5121 128.127C87.7494 128.473 89.0932 129.135 90.5433 130.115L103.944 139.167L100.455 144.334L87.0147 135.255C86.0436 134.599 85.1835 134.225 84.4343 134.134C83.6722 134.034 82.9889 134.167 82.3843 134.531C81.7884 134.883 81.2325 135.441 80.7165 136.205C80.1567 137.033 79.8375 137.855 79.7589 138.669C79.6673 139.475 79.7687 140.26 80.0631 141.024C80.3662 141.776 80.8147 142.493 81.4086 143.177C82.0112 143.849 82.7333 144.468 83.5749 145.037Z" fill="#560088"/>
<path d="M91.4381 113.841L111.263 129.654L107.39 134.51L87.5652 118.696L91.4381 113.841ZM82.1167 114.89C81.396 114.315 80.9924 113.594 80.9057 112.725C80.8288 111.844 81.1265 110.982 81.7987 110.14C82.471 109.297 83.2402 108.821 84.1063 108.712C84.9822 108.592 85.7805 108.819 86.5012 109.393C87.2097 109.958 87.6024 110.681 87.6793 111.562C87.7659 112.431 87.4731 113.287 86.8009 114.129C86.1286 114.972 85.3545 115.454 84.4786 115.575C83.6125 115.684 82.8252 115.455 82.1167 114.89Z" fill="#560088"/>
<path d="M104.714 107.114L119.265 120.755L115.033 125.269L96.5319 107.926L100.507 103.685L104.714 107.114ZM108.674 112.176L107.424 113.51C106.089 112.238 105.041 110.912 104.278 109.533C103.515 108.153 103.039 106.776 102.851 105.4C102.673 104.013 102.79 102.677 103.202 101.393C103.614 100.108 104.333 98.9188 105.359 97.8245C106.192 96.9353 107.071 96.2492 107.995 95.7662C108.919 95.2831 109.895 95.0415 110.923 95.0415C111.962 95.0301 113.054 95.3043 114.2 95.8643C115.345 96.4021 116.561 97.2748 117.849 98.4823L129.716 109.607L125.452 114.155L113.551 102.999C112.708 102.208 111.923 101.708 111.198 101.499C110.483 101.279 109.804 101.307 109.161 101.582C108.528 101.845 107.897 102.313 107.266 102.986C106.615 103.681 106.185 104.425 105.979 105.216C105.771 105.986 105.747 106.777 105.906 107.59C106.076 108.391 106.394 109.183 106.862 109.963C107.329 110.744 107.933 111.482 108.674 112.176Z" fill="#560088"/>
<path d="M129.493 76.0973L133.776 72.4504L149.715 91.1692C151.205 92.9179 152.085 94.7232 152.357 96.5849C152.651 98.4484 152.388 100.273 151.569 102.058C150.76 103.855 149.457 105.519 147.661 107.049C146.888 107.707 145.958 108.314 144.871 108.87C143.797 109.415 142.645 109.811 141.418 110.056C140.212 110.303 139.026 110.297 137.861 110.037L137.614 105.445C138.895 105.647 140.102 105.594 141.235 105.286C142.378 104.99 143.42 104.442 144.359 103.642C145.311 102.831 145.968 101.964 146.33 101.04C146.715 100.117 146.797 99.165 146.576 98.183C146.378 97.2028 145.863 96.2249 145.032 95.2494L132.8 80.8847L129.493 76.0973ZM124.867 97.0907L124.548 96.716C123.292 95.2409 122.331 93.7506 121.664 92.2452C120.988 90.7278 120.613 89.2513 120.54 87.8156C120.478 86.3698 120.721 85.0037 121.267 83.7175C121.826 82.4211 122.706 81.2613 123.907 80.2382C125.18 79.1542 126.448 78.4745 127.712 78.1989C128.987 77.9133 130.275 77.9556 131.576 78.3259C132.888 78.686 134.206 79.3182 135.53 80.2224C136.856 81.1046 138.206 82.1716 139.58 83.4234L140.446 84.4405C141.444 85.9504 142.245 87.4334 142.849 88.8895C143.464 90.3354 143.84 91.7399 143.974 93.103C144.099 94.4541 143.918 95.7365 143.433 96.9501C142.948 98.1636 142.11 99.2769 140.921 100.29C139.731 101.303 138.453 101.971 137.086 102.293C135.719 102.616 134.321 102.626 132.893 102.323C131.478 102.01 130.085 101.411 128.715 100.525C127.345 99.6392 126.062 98.4945 124.867 97.0907ZM129.259 92.7045L129.578 93.0792C130.287 93.9119 131.034 94.6202 131.818 95.2041C132.603 95.7879 133.406 96.2125 134.227 96.4779C135.038 96.7314 135.837 96.7899 136.623 96.6534C137.41 96.517 138.166 96.1398 138.892 95.5219C139.868 94.6912 140.492 93.8103 140.767 92.879C141.043 91.9258 141.037 90.9555 140.751 89.9682C140.466 88.9589 139.986 87.9617 139.311 86.9765L136.926 84.1749C136.258 83.5118 135.565 82.963 134.846 82.5285C134.139 82.0839 133.426 81.7884 132.706 81.642C131.986 81.4956 131.252 81.5254 130.504 81.7314C129.756 81.9375 129.014 82.3545 128.276 82.9826C127.562 83.5904 127.074 84.2828 126.813 85.0599C126.541 85.825 126.47 86.6341 126.601 87.487C126.732 88.3399 127.023 89.2111 127.472 90.1006C127.934 90.98 128.529 91.8479 129.259 92.7045Z" fill="#560088"/>
</svg>
