<svg width="62" height="62" viewBox="0 0 62 62" fill="none" xmlns="http://www.w3.org/2000/svg">
<path d="M51.6666 20.6668L31 33.5835L10.3333 20.6668V15.5002L31 28.4168L51.6666 15.5002M51.6666 10.3335H10.3333C7.46579 10.3335 5.16663 12.6327 5.16663 15.5002V46.5002C5.16663 47.8704 5.71097 49.1846 6.67991 50.1535C7.64885 51.1225 8.96301 51.6668 10.3333 51.6668H51.6666C53.0369 51.6668 54.3511 51.1225 55.32 50.1535C56.289 49.1846 56.8333 47.8704 56.8333 46.5002V15.5002C56.8333 14.1299 56.289 12.8157 55.32 11.8468C54.3511 10.8778 53.0369 10.3335 51.6666 10.3335Z" fill="white"/>
</svg>
