<svg width="58" height="61" viewBox="0 0 58 61" fill="none" xmlns="http://www.w3.org/2000/svg">
<path d="M26.5624 1.54417C27.0442 -0.51499 29.9755 -0.51499 30.4572 1.54417L35.1395 21.5569C35.3061 22.269 35.8481 22.8334 36.5529 23.0287L55.5537 28.2933C57.5083 28.8349 57.5083 31.6065 55.5537 32.1481L36.5529 37.4127C35.8481 37.608 35.3061 38.1724 35.1395 38.8845L30.4572 58.8972C29.9755 60.9564 27.0442 60.9564 26.5624 58.8972L21.8801 38.8845C21.7135 38.1724 21.1715 37.608 20.4667 37.4127L1.46599 32.1481C-0.488638 31.6065 -0.488633 28.8349 1.46599 28.2933L20.4667 23.0287C21.1715 22.8334 21.7135 22.269 21.8801 21.5569L26.5624 1.54417Z" fill="#FFAE00"/>
</svg>
