<svg width="58" height="61" viewBox="0 0 58 61" fill="none" xmlns="http://www.w3.org/2000/svg">
<path d="M26.5624 1.54442C27.0441 -0.514746 29.9754 -0.514746 30.4572 1.54442L35.1395 21.5572C35.3061 22.2693 35.8481 22.8336 36.5529 23.0289L55.5536 28.2936C57.5082 28.8351 57.5082 31.6068 55.5536 32.1483L36.5529 37.413C35.8481 37.6083 35.3061 38.1726 35.1395 38.8847L30.4572 58.8975C29.9754 60.9566 27.0441 60.9566 26.5624 58.8975L21.8801 38.8847C21.7134 38.1726 21.1715 37.6083 20.4667 37.413L1.46593 32.1483C-0.488699 31.6068 -0.488694 28.8351 1.46593 28.2936L20.4667 23.0289C21.1715 22.8336 21.7134 22.2693 21.8801 21.5572L26.5624 1.54442Z" fill="white"/>
</svg>
